<svg width="1228" height="1134" viewBox="0 0 1228 1134" fill="none" xmlns="http://www.w3.org/2000/svg">
<path d="M1162.76 0.555939C1211.26 36.8347 1234.17 100.284 1226.38 159.599C1218.3 221.044 1175.64 269.879 1116.95 288.646C1060.28 306.729 992.83 296.612 950.205 253.009C910.335 212.219 892.607 139.858 940.286 97.48C980.555 61.7002 1051.06 62.2957 1087.79 102.791C1124.53 143.286 1121.65 208.213 1091.64 251.662C1053.75 306.473 980.781 312.865 920.208 305.295C846.779 296.252 770.712 265.025 696.759 287.743C638.453 305.655 591.826 353.813 570.812 410.58C560.101 438.945 556.627 469.53 560.704 499.565C565.438 532.292 583.358 566.666 612.694 583.68C645.324 602.611 681.873 587.632 699.421 555.852C718.683 520.894 711.267 479.228 703.027 442.224C687.274 371.564 660.284 296.037 601.614 249.607C549.621 208.561 471.858 192.45 415.284 234.005C351.151 281.12 341.621 368.043 353.352 440.91C359.725 480.439 371.135 519.068 382.188 557.489C393.421 596.553 404.932 635.572 414.326 675.173C432.048 750.223 441.806 828.15 426.415 904.528C411.986 976.178 375.586 1043.66 313.474 1084.53C255.691 1122.67 184.624 1135.71 116.341 1133.65C31.0009 1131.17 -52.1476 1107.46 -134.531 1087.26L-398.784 1022.46L-525.492 991.374C-528.219 990.707 -527.507 986.381 -524.79 987.023L-263.705 1051.04C-178.771 1071.88 -94.0684 1094.68 -8.48549 1112.69C67.708 1128.71 147.377 1137.7 223.867 1118.32C257.742 1109.74 290.456 1095.81 318.951 1075.35C349.779 1052.87 374.912 1023.47 392.328 989.506C469.136 842.263 410.508 675.62 369.141 527.694C349.454 457.214 331.201 380.412 356.837 308.857C367.893 277.914 386.858 248.958 413.77 229.607C438.337 212.276 467.984 203.66 497.993 205.133C563.037 207.686 619.081 248.154 653.552 301.481C672.79 331.334 686.234 364.584 696.303 398.485C706.572 433.124 716.721 470.657 715.94 507.017C715.267 537.978 703.222 570.988 675.618 587.76C650.948 602.732 621.734 597.663 599.918 580.153C552.4 542.019 546.316 473.355 563.45 418.622C580.46 364.348 620.36 316.835 671.993 292.593C737.735 261.784 809.878 280.21 877.414 293.617C941.373 306.334 1022.79 315.653 1074.19 265.57C1115.25 225.567 1124.6 151.912 1085.89 107.263C1046.81 62.1181 963.473 66.2582 929.742 116.037C889.296 175.684 938.777 253.912 996.066 279.358C1053.35 304.804 1125.9 293.609 1173.22 252.357C1222.43 209.392 1234.65 137.459 1213.26 77.3998C1203.12 48.2057 1184.57 22.6719 1159.95 4.00771C1157.66 2.29115 1160.53 -1.0487 1162.76 0.555939Z" fill="#FF4C0D"/>
</svg>
