<svg width="624" height="485" viewBox="0 0 624 485" fill="none" xmlns="http://www.w3.org/2000/svg">
<path d="M937.826 39.3552C971.477 89.7118 971.951 157.168 944.856 210.505C916.781 265.755 860.299 297.6 798.702 295.752C739.25 293.936 679.016 261.937 653.341 206.63C629.327 154.892 636.705 80.7572 695.773 56.6731C745.657 36.3427 811.938 60.3785 833.093 110.795C854.249 161.211 829.921 221.476 787.152 252.452C733.178 291.52 662.243 273.251 607.646 245.945C541.418 212.969 480.089 158.196 402.792 154.995C341.848 152.471 281.847 182.355 243.131 228.887C223.587 252.067 210.127 279.75 203.971 309.428C197.538 341.865 202.99 380.244 224.987 406.054C249.452 434.771 288.903 432.815 316.031 408.691C345.834 382.141 352.714 340.384 357.266 302.748C365.938 230.875 365.636 150.67 325.774 87.3548C290.414 31.3394 222.452 -9.74493 155.27 10.6018C79.1086 33.6747 41.1803 112.465 27.9806 185.08C20.8277 224.475 18.7251 264.699 16.3547 304.609C13.9394 345.184 11.8017 385.809 7.47506 426.278C-0.803119 502.947 -17.5496 579.676 -57.493 646.572C-94.9557 709.329 -151.749 760.844 -223.925 778.702C-291.109 795.423 -362.461 784.052 -426.163 759.378C-505.807 728.621 -576.319 678.585 -647.273 632.099L-874.872 483.009L-984.001 411.513C-986.35 409.975 -984.239 406.134 -981.89 407.644L-757.018 554.939C-683.868 602.869 -611.591 652.571 -536.889 698.052C-470.376 738.525 -398.248 773.533 -319.669 780.726C-284.87 783.914 -249.382 781.666 -215.702 771.864C-179.147 760.931 -145.659 741.574 -117.929 715.351C3.52197 602.084 3.72518 425.428 13.9724 272.169C18.8765 199.156 27.2364 120.659 75.2355 61.7224C95.9629 36.226 123.487 15.2366 155.307 5.9513C184.243 -2.21164 215.067 -0.463876 242.873 10.9163C303.356 34.9811 342.727 91.8004 357.475 153.562C365.676 188.117 367.282 223.946 365.489 259.266C363.639 295.347 360.711 334.118 347.868 368.143C336.924 397.114 314.576 424.229 282.963 430.854C254.715 436.757 228.856 422.249 214.115 398.475C182.005 346.695 199.131 279.923 233.512 234.018C267.622 188.505 321.065 156.988 377.824 151.321C450.072 144.16 511.964 185.555 571.182 220.685C627.258 253.972 700.922 289.867 766.067 259.757C818.107 235.708 851.444 169.368 829.815 114.379C807.996 58.7985 728.033 34.9531 679.652 70.6606C621.654 113.437 642.265 203.676 687.812 246.746C733.359 289.815 805.493 303.414 863.844 280.269C924.559 256.144 960.026 192.382 959.86 128.63C960.013 97.7227 951.026 67.4704 934.029 41.6753C932.442 39.2942 936.254 37.0984 937.826 39.3552Z" fill="#FF4C0D"/>
</svg>
