<svg width="101" height="26" viewBox="0 0 101 26" fill="none" xmlns="http://www.w3.org/2000/svg">
<path d="M15.7689 12.3007C15.7796 11.466 16.0013 10.6476 16.4134 9.92169C16.8254 9.19573 17.4144 8.58579 18.1254 8.14862C17.6737 7.50346 17.0778 6.97252 16.3849 6.59797C15.6921 6.22341 14.9215 6.01557 14.1343 5.99094C12.455 5.81468 10.8271 6.99577 9.97139 6.99577C9.09912 6.99577 7.78162 6.00844 6.36288 6.03763C5.44521 6.06728 4.55087 6.33413 3.76699 6.81219C2.98311 7.29025 2.33643 7.96321 1.88997 8.7655C-0.0440345 12.1139 1.39855 17.035 3.25116 19.7416C4.17806 21.0669 5.26135 22.5474 6.6788 22.4949C8.06586 22.4374 8.5839 21.6104 10.2582 21.6104C11.917 21.6104 12.403 22.4949 13.8492 22.4615C15.3376 22.4373 16.2753 21.1303 17.1697 19.7924C17.8357 18.848 18.3481 17.8043 18.6881 16.6999C17.8234 16.3341 17.0855 15.7219 16.5664 14.9396C16.0473 14.1574 15.7699 13.2395 15.7689 12.3007Z" fill="white"/>
<path d="M13.0373 4.21089C13.8488 3.23668 14.2486 1.9845 14.1518 0.72027C12.912 0.850491 11.7667 1.44305 10.9442 2.37988C10.5421 2.83755 10.2341 3.36998 10.0378 3.94675C9.84158 4.52352 9.76093 5.13331 9.8005 5.74127C10.4206 5.74766 11.0341 5.61324 11.5948 5.34816C12.1555 5.08307 12.6487 4.69422 13.0373 4.21089Z" fill="white"/>
<path d="M33.3023 19.1397H28.5689L27.4322 22.4961H25.4273L29.9107 10.0781H31.9937L36.4771 22.4961H34.438L33.3023 19.1397ZM29.0591 17.5908H32.8111L30.9615 12.1436H30.9097L29.0591 17.5908Z" fill="white"/>
<path d="M46.1597 17.9697C46.1597 20.7832 44.6538 22.5908 42.3814 22.5908C41.8057 22.6209 41.2332 22.4883 40.7294 22.2082C40.2256 21.9281 39.8109 21.5117 39.5327 21.0068H39.4897V25.4912H37.6313V13.4424H39.4302V14.9482H39.4644C39.7553 14.4458 40.1771 14.0316 40.6847 13.7497C41.1923 13.4679 41.7669 13.3289 42.3472 13.3477C44.645 13.3477 46.1597 15.1641 46.1597 17.9697ZM44.2495 17.9697C44.2495 16.1367 43.3023 14.9316 41.857 14.9316C40.437 14.9316 39.482 16.1621 39.482 17.9697C39.482 19.794 40.437 21.0156 41.857 21.0156C43.3023 21.0156 44.2495 19.8193 44.2495 17.9697Z" fill="white"/>
<path d="M56.1245 17.9697C56.1245 20.7832 54.6187 22.5908 52.3462 22.5908C51.7706 22.6209 51.1981 22.4883 50.6943 22.2082C50.1905 21.9281 49.7758 21.5117 49.4976 21.0068H49.4546V25.4912H47.5962V13.4424H49.395V14.9482H49.4292C49.7201 14.4458 50.1419 14.0316 50.6495 13.7497C51.1571 13.4679 51.7317 13.3289 52.312 13.3477C54.6099 13.3477 56.1245 15.1641 56.1245 17.9697ZM54.2144 17.9697C54.2144 16.1367 53.2671 14.9316 51.8218 14.9316C50.4019 14.9316 49.4468 16.1621 49.4468 17.9697C49.4468 19.794 50.4019 21.0156 51.8218 21.0156C53.2671 21.0156 54.2144 19.8193 54.2144 17.9697H54.2144Z" fill="white"/>
<path d="M62.7105 19.0361C62.8482 20.2676 64.0445 21.0761 65.6792 21.0761C67.2456 21.0761 68.3726 20.2675 68.3726 19.1572C68.3726 18.1933 67.6929 17.6162 66.0835 17.2207L64.4742 16.833C62.1939 16.2822 61.1353 15.2158 61.1353 13.4853C61.1353 11.3427 63.0025 9.87104 65.6538 9.87104C68.2778 9.87104 70.0767 11.3427 70.1372 13.4853H68.2612C68.1489 12.246 67.1245 11.498 65.6274 11.498C64.1304 11.498 63.106 12.2548 63.106 13.3564C63.106 14.2343 63.7603 14.7509 65.3608 15.1464L66.729 15.4823C69.2769 16.0849 70.3355 17.1083 70.3355 18.9247C70.3355 21.248 68.4849 22.703 65.5415 22.703C62.7876 22.703 60.9282 21.2821 60.8081 19.036L62.7105 19.0361Z" fill="white"/>
<path d="M74.3462 11.2998V13.4424H76.0679V14.9141H74.3462V19.9053C74.3462 20.6807 74.6909 21.042 75.4478 21.042C75.6522 21.0384 75.8562 21.0241 76.0591 20.999V22.4619C75.7188 22.5255 75.373 22.5543 75.0269 22.5478C73.1939 22.5478 72.479 21.8593 72.479 20.1035V14.9141H71.1626V13.4424H72.479V11.2998H74.3462Z" fill="white"/>
<path d="M77.065 17.9697C77.065 15.1211 78.7427 13.3311 81.3589 13.3311C83.9839 13.3311 85.6539 15.1211 85.6539 17.9697C85.6539 20.8262 83.9927 22.6084 81.3589 22.6084C78.7261 22.6084 77.065 20.8262 77.065 17.9697ZM83.7603 17.9697C83.7603 16.0156 82.8648 14.8623 81.3589 14.8623C79.8531 14.8623 78.9585 16.0244 78.9585 17.9697C78.9585 19.9316 79.8531 21.0762 81.3589 21.0762C82.8648 21.0762 83.7603 19.9316 83.7603 17.9697H83.7603Z" fill="white"/>
<path d="M87.1861 13.4424H88.9585V14.9834H89.0015C89.1215 14.5021 89.4034 14.0768 89.8 13.7789C90.1966 13.481 90.6836 13.3287 91.1793 13.3476C91.3934 13.3469 91.607 13.3702 91.816 13.417V15.1553C91.5456 15.0726 91.2636 15.0347 90.981 15.043C90.711 15.032 90.4419 15.0796 90.192 15.1825C89.9422 15.2854 89.7176 15.4411 89.5336 15.639C89.3496 15.8369 89.2106 16.0723 89.1262 16.3289C89.0418 16.5856 89.0139 16.8575 89.0445 17.126V22.4961H87.1861L87.1861 13.4424Z" fill="white"/>
<path d="M100.384 19.8369C100.134 21.4805 98.5337 22.6084 96.4859 22.6084C93.8521 22.6084 92.2173 20.8437 92.2173 18.0127C92.2173 15.1728 93.8609 13.3311 96.4077 13.3311C98.9126 13.3311 100.488 15.0517 100.488 17.7969V18.4336H94.0933V18.5459C94.0638 18.8791 94.1055 19.2148 94.2157 19.5306C94.3259 19.8464 94.502 20.1352 94.7323 20.3778C94.9627 20.6203 95.242 20.8111 95.5518 20.9374C95.8615 21.0637 96.1946 21.1226 96.5288 21.1103C96.968 21.1515 97.4087 21.0498 97.7854 20.8203C98.1621 20.5909 98.4547 20.246 98.6197 19.8369L100.384 19.8369ZM94.1021 17.1348H98.6284C98.6451 16.8352 98.5997 16.5354 98.495 16.2541C98.3904 15.9729 98.2287 15.7164 98.0202 15.5006C97.8116 15.2849 97.5608 15.1145 97.2833 15.0003C97.0058 14.8861 96.7077 14.8305 96.4077 14.8369C96.1051 14.8351 95.8051 14.8932 95.5251 15.008C95.245 15.1227 94.9905 15.2918 94.7761 15.5054C94.5618 15.7191 94.3918 15.973 94.2762 16.2527C94.1605 16.5323 94.1013 16.8321 94.1021 17.1348V17.1348Z" fill="white"/>
<path d="M28.8262 0.730999C29.2158 0.703039 29.6068 0.7619 29.9709 0.903332C30.335 1.04477 30.6632 1.26525 30.9318 1.54887C31.2004 1.8325 31.4026 2.17219 31.524 2.54347C31.6455 2.91474 31.6829 3.30832 31.6338 3.69584C31.6338 5.60209 30.6035 6.69784 28.8262 6.69784H26.6709V0.730999H28.8262ZM27.5977 5.854H28.7227C29.0011 5.87064 29.2797 5.82499 29.5382 5.72038C29.7968 5.61576 30.0287 5.45482 30.2172 5.24925C30.4057 5.04368 30.546 4.79868 30.6279 4.53206C30.7097 4.26544 30.7311 3.98392 30.6904 3.708C30.7282 3.43317 30.7046 3.15339 30.6215 2.88873C30.5384 2.62407 30.3977 2.38106 30.2097 2.17713C30.0216 1.9732 29.7908 1.81339 29.5337 1.70916C29.2766 1.60492 28.9997 1.55884 28.7227 1.57421H27.5977V5.854Z" fill="white"/>
<path d="M32.6807 4.44434C32.6524 4.14842 32.6862 3.84985 32.7801 3.56778C32.8739 3.28572 33.0257 3.02637 33.2256 2.80639C33.4256 2.58641 33.6693 2.41064 33.9411 2.29037C34.213 2.17009 34.507 2.10796 34.8042 2.10796C35.1015 2.10796 35.3955 2.17009 35.6673 2.29037C35.9392 2.41064 36.1829 2.58641 36.3828 2.80639C36.5828 3.02637 36.7345 3.28572 36.8284 3.56778C36.9222 3.84985 36.9561 4.14842 36.9278 4.44434C36.9566 4.74056 36.9232 5.03954 36.8296 5.32207C36.736 5.60459 36.5843 5.86441 36.3843 6.08483C36.1843 6.30524 35.9404 6.48137 35.6683 6.60191C35.3962 6.72244 35.1019 6.78471 34.8042 6.78471C34.5066 6.78471 34.2123 6.72244 33.9402 6.60191C33.668 6.48137 33.4241 6.30524 33.2241 6.08483C33.0242 5.86441 32.8725 5.60459 32.7789 5.32207C32.6853 5.03954 32.6519 4.74056 32.6807 4.44434ZM36.0137 4.44434C36.0137 3.46827 35.5752 2.89747 34.8057 2.89747C34.0332 2.89747 33.5987 3.46827 33.5987 4.44435C33.5987 5.42824 34.0333 5.99464 34.8057 5.99464C35.5752 5.99463 36.0137 5.42432 36.0137 4.44434H36.0137Z" fill="white"/>
<path d="M42.5733 6.69775H41.6514L40.7207 3.38134H40.6504L39.7237 6.69775H38.8106L37.5694 2.19482H38.4707L39.2774 5.63082H39.3438L40.2696 2.19482H41.1221L42.0479 5.63082H42.1182L42.9209 2.19482H43.8096L42.5733 6.69775Z" fill="white"/>
<path d="M44.8536 2.19482H45.709V2.91015H45.7754C45.8881 2.65323 46.0781 2.43786 46.319 2.29405C46.5598 2.15024 46.8396 2.08517 47.1192 2.1079C47.3383 2.09143 47.5583 2.12446 47.7629 2.20456C47.9675 2.28465 48.1514 2.40976 48.3011 2.5706C48.4508 2.73144 48.5624 2.92391 48.6276 3.13373C48.6928 3.34355 48.7099 3.56535 48.6778 3.7827V6.6977H47.7891V4.00586C47.7891 3.28223 47.4746 2.92236 46.8174 2.92236C46.6687 2.91543 46.5202 2.94075 46.3821 2.99658C46.244 3.05241 46.1197 3.13743 46.0176 3.24582C45.9154 3.3542 45.838 3.48339 45.7904 3.62452C45.7429 3.76565 45.7265 3.91539 45.7422 4.06347V6.69775H44.8535L44.8536 2.19482Z" fill="white"/>
<path d="M50.0938 0.437H50.9825V6.69774H50.0938V0.437Z" fill="white"/>
<path d="M52.2178 4.44434C52.1895 4.1484 52.2234 3.84982 52.3172 3.56774C52.4111 3.28566 52.5629 3.02631 52.7628 2.80632C52.9628 2.58633 53.2065 2.41056 53.4784 2.29029C53.7503 2.17001 54.0443 2.10788 54.3416 2.10788C54.6389 2.10788 54.9329 2.17001 55.2047 2.29029C55.4766 2.41056 55.7203 2.58633 55.9203 2.80632C56.1203 3.02631 56.272 3.28566 56.3659 3.56774C56.4598 3.84982 56.4936 4.1484 56.4653 4.44434C56.4942 4.74057 56.4607 5.03956 56.3671 5.32208C56.2734 5.60461 56.1217 5.86442 55.9217 6.08483C55.7217 6.30523 55.4778 6.48136 55.2057 6.60189C54.9335 6.72242 54.6392 6.78469 54.3416 6.78469C54.0439 6.78469 53.7496 6.72242 53.4775 6.60189C53.2053 6.48136 52.9614 6.30523 52.7614 6.08483C52.5614 5.86442 52.4097 5.60461 52.3161 5.32208C52.2225 5.03956 52.189 4.74057 52.2178 4.44434ZM55.5508 4.44434C55.5508 3.46827 55.1123 2.89747 54.3428 2.89747C53.5703 2.89747 53.1358 3.46827 53.1358 4.44435C53.1358 5.42824 53.5704 5.99464 54.3428 5.99464C55.1123 5.99463 55.5508 5.42432 55.5508 4.44434H55.5508Z" fill="white"/>
<path d="M57.4009 5.42432C57.4009 4.61377 58.0044 4.14649 59.0757 4.08008L60.2954 4.00977V3.6211C60.2954 3.14551 59.981 2.87696 59.3736 2.87696C58.8775 2.87696 58.5337 3.05909 58.4351 3.37745H57.5747C57.6656 2.60401 58.3931 2.10792 59.4146 2.10792C60.5435 2.10792 61.1802 2.66992 61.1802 3.6211V6.69776H60.3247V6.06495H60.2544C60.1117 6.29194 59.9113 6.47699 59.6737 6.6012C59.4361 6.72541 59.1697 6.78433 58.9019 6.77195C58.7129 6.79161 58.5218 6.77144 58.341 6.71275C58.1603 6.65405 57.9938 6.55812 57.8524 6.43115C57.711 6.30418 57.5977 6.14899 57.52 5.97557C57.4422 5.80216 57.4017 5.61437 57.4009 5.42432ZM60.2954 5.03955V4.66309L59.1958 4.7334C58.5757 4.7749 58.2945 4.98584 58.2945 5.38281C58.2945 5.78808 58.646 6.02392 59.1295 6.02392C59.2711 6.03826 59.4142 6.02396 59.5502 5.98187C59.6862 5.93978 59.8123 5.87076 59.9211 5.77892C60.0299 5.68707 60.1191 5.57429 60.1834 5.44727C60.2477 5.32025 60.2858 5.18159 60.2954 5.03955Z" fill="white"/>
<path d="M62.3482 4.44434C62.3482 3.02149 63.0796 2.12012 64.2173 2.12012C64.4987 2.10715 64.778 2.17456 65.0226 2.31445C65.2671 2.45435 65.4667 2.66095 65.5982 2.91012H65.6646V0.437H66.5533V6.69774H65.7017V5.98631H65.6314C65.4898 6.2338 65.2832 6.43784 65.0339 6.57632C64.7847 6.7148 64.5023 6.78245 64.2173 6.77195C63.0718 6.772 62.3482 5.87061 62.3482 4.44434ZM63.2662 4.44434C63.2662 5.39942 63.7164 5.97413 64.4693 5.97413C65.2183 5.97413 65.6812 5.39113 65.6812 4.44825C65.6812 3.50977 65.2134 2.91846 64.4693 2.91846C63.7212 2.91846 63.2661 3.49707 63.2661 4.44434H63.2662Z" fill="white"/>
<path d="M70.23 4.44434C70.2017 4.14842 70.2356 3.84985 70.3294 3.56778C70.4232 3.28572 70.575 3.02637 70.7749 2.80639C70.9749 2.58641 71.2186 2.41064 71.4904 2.29037C71.7623 2.17009 72.0563 2.10796 72.3536 2.10796C72.6508 2.10796 72.9448 2.17009 73.2167 2.29037C73.4885 2.41064 73.7322 2.58641 73.9322 2.80639C74.1321 3.02637 74.2839 3.28572 74.3777 3.56778C74.4715 3.84985 74.5054 4.14842 74.4771 4.44434C74.5059 4.74056 74.4725 5.03954 74.3789 5.32207C74.2853 5.60459 74.1336 5.86441 73.9336 6.08483C73.7336 6.30524 73.4897 6.48137 73.2176 6.60191C72.9455 6.72244 72.6512 6.78471 72.3536 6.78471C72.0559 6.78471 71.7616 6.72244 71.4895 6.60191C71.2173 6.48137 70.9735 6.30524 70.7735 6.08483C70.5735 5.86441 70.4218 5.60459 70.3282 5.32207C70.2346 5.03954 70.2012 4.74056 70.23 4.44434ZM73.563 4.44434C73.563 3.46827 73.1245 2.89747 72.355 2.89747C71.5826 2.89747 71.148 3.46827 71.148 4.44435C71.148 5.42824 71.5826 5.99464 72.355 5.99464C73.1245 5.99463 73.563 5.42432 73.563 4.44434Z" fill="white"/>
<path d="M75.6695 2.19482H76.5249V2.91015H76.5913C76.704 2.65323 76.894 2.43786 77.1349 2.29405C77.3757 2.15024 77.6555 2.08517 77.9351 2.1079C78.1542 2.09143 78.3742 2.12446 78.5788 2.20456C78.7834 2.28465 78.9673 2.40976 79.117 2.5706C79.2667 2.73144 79.3783 2.92391 79.4435 3.13373C79.5087 3.34355 79.5258 3.56535 79.4937 3.7827V6.6977H78.605V4.00586C78.605 3.28223 78.2906 2.92236 77.6333 2.92236C77.4846 2.91543 77.3361 2.94075 77.198 2.99658C77.06 3.05241 76.9356 3.13743 76.8335 3.24582C76.7314 3.3542 76.6539 3.48339 76.6064 3.62452C76.5588 3.76565 76.5424 3.91539 76.5581 4.06347V6.69775H75.6695V2.19482Z" fill="white"/>
<path d="M84.5152 1.07373V2.21533H85.4908V2.96387H84.5152V5.2793C84.5152 5.75098 84.7095 5.95752 85.1519 5.95752C85.2651 5.95716 85.3783 5.95031 85.4908 5.93701V6.67724C85.3312 6.70579 85.1695 6.72098 85.0074 6.72265C84.0191 6.72265 83.6255 6.37499 83.6255 5.50683V2.96383H82.9107V2.21529H83.6255V1.07373H84.5152Z" fill="white"/>
<path d="M86.7046 0.437H87.5855V2.91845H87.6558C87.7739 2.65913 87.9691 2.44254 88.2148 2.29819C88.4605 2.15384 88.7448 2.08876 89.0288 2.11181C89.2467 2.09995 89.4646 2.13634 89.6669 2.21838C89.8692 2.30042 90.0509 2.4261 90.199 2.58643C90.3471 2.74677 90.458 2.93782 90.5238 3.14596C90.5896 3.35409 90.6086 3.57418 90.5796 3.79052V6.69775H89.69V4.00975C89.69 3.29051 89.355 2.92625 88.7271 2.92625C88.5744 2.91372 88.4207 2.93472 88.277 2.98777C88.1332 3.04083 88.0027 3.12466 87.8948 3.23339C87.7868 3.34213 87.7038 3.47315 87.6518 3.61729C87.5997 3.76143 87.5798 3.9152 87.5933 4.06785V6.69773H86.7047L86.7046 0.437Z" fill="white"/>
<path d="M95.7613 5.48193C95.6405 5.89347 95.3789 6.24945 95.0222 6.4876C94.6656 6.72575 94.2365 6.8309 93.8101 6.78466C93.5134 6.79249 93.2186 6.73567 92.9461 6.61814C92.6736 6.50061 92.43 6.32519 92.232 6.10405C92.0341 5.88292 91.8867 5.62136 91.8 5.33754C91.7133 5.05372 91.6894 4.75443 91.73 4.46045C91.6905 4.16556 91.7148 3.86563 91.8013 3.58096C91.8878 3.29629 92.0344 3.03352 92.2313 2.81045C92.4282 2.58737 92.6707 2.4092 92.9424 2.28799C93.2141 2.16679 93.5087 2.10537 93.8062 2.10791C95.0591 2.10791 95.815 2.96391 95.815 4.37791V4.688H92.6353V4.7378C92.6214 4.90304 92.6421 5.06938 92.6963 5.22613C92.7504 5.38287 92.8367 5.52658 92.9496 5.64804C93.0625 5.7695 93.1995 5.86602 93.3519 5.93141C93.5043 5.99681 93.6687 6.02964 93.8345 6.0278C94.0471 6.05332 94.2624 6.01504 94.4532 5.91783C94.644 5.82063 94.8015 5.66888 94.9058 5.4819L95.7613 5.48193ZM92.6353 4.03076H94.9097C94.9209 3.87963 94.9003 3.72783 94.8494 3.58511C94.7984 3.4424 94.7182 3.31192 94.6138 3.20206C94.5094 3.0922 94.3832 3.0054 94.2433 2.94722C94.1033 2.88904 93.9528 2.86079 93.8013 2.86426C93.6476 2.86233 93.495 2.89119 93.3527 2.94913C93.2103 3.00708 93.081 3.09293 92.9723 3.20165C92.8636 3.31036 92.7778 3.43973 92.72 3.58212C92.6621 3.72452 92.6333 3.87706 92.6353 4.03076H92.6353Z" fill="white"/>
</svg>
